<svg xmlns:xlink="http://www.w3.org/1999/xlink" width="195" height="52" viewBox="0 0 195 52" fill="none" xmlns="http://www.w3.org/2000/svg" id="svg1400587847_9070">
<path fill-rule="evenodd" clip-rule="evenodd" d="M2.14523 30.9676C1.71137 31.0384 1.26697 30.9343 0.911608 30.6785C0.556252 30.4227 0.319908 30.0369 0.255758 29.6074C0.0882086 28.4288 0 27.2244 0 26C0 24.8781 0.0742855 23.7732 0.217779 22.69C0.337638 21.8152 1.14583 21.1973 2.0338 21.3019C5.93218 21.7581 16.1603 22.9629 21.1771 23.5541C22.5593 23.717 23.5966 24.8789 23.5861 26.2529C23.5856 26.2745 23.5857 26.2962 23.5857 26.3179C23.5857 26.3374 23.5857 26.3579 23.5857 26.3779C23.5903 27.0048 23.1315 27.5423 22.5048 27.6448C18.6706 28.2705 6.52768 30.2523 2.14523 30.9676ZM25.4266 21.6764C24.8703 22.2743 23.9684 22.4117 23.256 22.0068C19.7156 19.9963 10.1074 14.5377 6.27488 12.3603C5.8596 12.1244 5.56965 11.7208 5.48103 11.2559C5.39282 10.7909 5.51522 10.311 5.81571 9.94256C7.26963 8.20513 8.94935 6.65769 10.8135 5.34987C11.4736 4.89552 12.3704 4.98255 12.9279 5.55509C15.4525 8.14127 22.344 15.2177 25.5659 18.526C26.3863 19.3688 26.3838 20.702 25.5599 21.5415C25.5135 21.5848 25.4696 21.6302 25.4266 21.6764ZM30.1458 19.4867C29.4089 19.5217 28.729 19.0976 28.4437 18.4261C27.1029 15.2745 23.5283 6.85237 21.9038 3.02487C21.7021 2.54977 21.7413 2.00826 22.0102 1.56654C22.2786 1.12485 22.7441 0.835722 23.2636 0.787896C24.0491 0.719197 24.8442 0.682617 25.6477 0.682617C27.0096 0.682617 28.3471 0.787685 29.6525 0.98999C30.3847 1.10756 30.9456 1.69677 31.019 2.42579C31.322 5.42049 32.1066 13.2275 32.5152 17.2975C32.5713 17.8549 32.386 18.4098 32.0049 18.8252C31.6238 19.2405 31.0828 19.4772 30.5151 19.4772C30.391 19.4772 30.2682 19.4805 30.1458 19.4867ZM35.2508 21.3257C34.4059 20.5528 34.1434 19.3401 34.5945 18.294C35.8476 15.3796 38.1844 9.95938 39.4231 7.08633C39.6248 6.61907 40.0367 6.2722 40.5356 6.14951C41.0349 6.02682 41.5637 6.14247 41.9633 6.46192C43.6355 7.83394 45.1337 9.40647 46.4133 11.1457C46.8544 11.7561 46.8117 12.5861 46.3104 13.1493C44.0457 15.6979 37.9742 22.5151 37.9742 22.5151C37.9742 22.5151 37.9738 22.5155 37.973 22.5167C37.7442 22.7717 37.41 22.9092 37.0656 22.8896C36.7212 22.8704 36.4047 22.6967 36.2067 22.418C35.9278 22.021 35.6066 21.6552 35.2508 21.3257ZM38.4207 23.7828C38.4254 23.7816 45.6811 22.0672 49.0658 21.2677C49.5157 21.1615 49.9905 21.2477 50.3725 21.5056C50.7544 21.7635 51.0085 22.1684 51.0714 22.6209C51.2178 23.727 51.295 24.8547 51.295 26C51.295 26.6116 51.2731 27.2177 51.2301 27.8185C51.1988 28.2488 50.9946 28.6488 50.6628 28.9296C50.3311 29.2108 49.8994 29.3491 49.4638 29.3141C47.0194 29.12 42.3356 28.7442 39.4986 28.5171C38.3384 28.4238 37.4446 27.4673 37.4446 26.3179C37.4446 25.9104 37.4336 25.5863 37.3927 25.2818C37.2964 24.5977 37.7425 23.9532 38.4233 23.7928C38.4207 23.7828 38.4207 23.7828 38.4207 23.7828ZM35.1761 31.3776C36.227 30.4435 37.8459 30.5264 38.7934 31.5625C40.9783 33.9464 44.3289 37.61 45.9128 39.3423C46.4395 39.918 46.4779 40.7825 46.0039 41.402C44.8948 42.8218 43.6393 44.1245 42.2575 45.2856C41.8722 45.6035 41.3602 45.7289 40.869 45.6255C40.3777 45.5222 39.962 45.2014 39.7417 44.7561C38.4161 42.0894 35.9446 37.0905 34.5886 34.3471C34.0902 33.3389 34.3282 32.1262 35.1727 31.3751C35.1757 31.378 35.1757 31.378 35.1761 31.3776ZM30.5151 33.1577C31.0258 33.1577 31.5136 33.3689 31.8597 33.7397C32.2062 34.1105 32.3797 34.6071 32.3383 35.1099C32.0239 38.9252 31.3959 46.5517 31.1511 49.5262C31.0903 50.2645 30.5295 50.8681 29.7892 50.991C28.4404 51.2052 27.0573 51.3176 25.6477 51.3176C24.8129 51.3176 23.987 51.2781 23.1725 51.201C22.669 51.1527 22.2166 50.8773 21.9465 50.4549C21.6768 50.0324 21.6198 49.5104 21.7928 49.0409C23.0374 45.6522 25.6574 38.5349 27.0008 34.8871C27.4275 33.7272 28.5974 33.0015 29.8411 33.124C30.0627 33.1469 30.2876 33.1577 30.5151 33.1577ZM25.4675 31.0022C26.2424 31.8221 26.2082 33.104 25.3907 33.883C22.122 36.998 15.0524 43.73 12.4687 46.19C11.8952 46.7366 11.0064 46.7962 10.3627 46.3321C8.78179 45.1664 7.33841 43.8279 6.06512 42.3431C5.75577 41.9756 5.62747 41.4911 5.71484 41.0208C5.80262 40.5504 6.0972 40.143 6.51881 39.908C10.3083 37.7912 19.5704 32.6336 23.1413 30.6456C23.9068 30.219 24.8687 30.3656 25.468 31.0001C25.4667 31.0018 25.4671 31.0018 25.4675 31.0022Z" fill="url(&quot;#svg1400587847_9070_paint0_radial_100_22524&quot;)"></path>
<path d="M72.8072 14.5518C65.3939 14.5518 59.9861 19.2604 59.9861 25.6485C59.9861 32.0367 65.3939 36.7453 72.8072 36.7453C80.1597 36.7453 85.5677 32.0367 85.5677 25.6485C85.5677 19.2604 80.1597 14.5518 72.8072 14.5518ZM72.8072 17.9408C78.0329 17.9408 81.618 21.0599 81.618 25.6485C81.618 30.2372 78.0329 33.3563 72.8072 33.3563C67.5206 33.3563 63.9963 30.2372 63.9963 25.6485C63.9963 21.0599 67.5206 17.9408 72.8072 17.9408Z" fill="#FFFFFF"></path>
<path d="M91.765 34.437C92.9195 35.6667 95.0464 36.7463 97.9631 36.7463C103.432 36.7463 106.713 33.0274 106.713 28.5587C106.713 24.09 103.432 20.3711 97.9631 20.3711C95.0464 20.3711 92.9195 21.4508 91.765 22.6804V20.671H88.1191V41.8149H91.765V34.437ZM91.5828 28.4388C91.5828 25.5596 94.1347 23.3702 97.416 23.3702C100.576 23.3702 103.249 25.2297 103.249 28.5587C103.249 31.8878 100.576 33.7472 97.416 33.7472C94.1347 33.7472 91.5828 31.5579 91.5828 28.6787V28.4388Z" fill="#FFFFFF"></path>
<path d="M131.566 14.8809H127.859V30.8662L113.58 14.8809H109.57V36.4146H113.276V19.7095L128.163 36.4146H131.566V14.8809Z" fill="#FFFFFF"></path>
<path d="M143.537 20.3711C138.493 20.3711 134.422 23.6702 134.422 28.5587C134.422 33.4473 138.493 36.7463 143.537 36.7463C148.58 36.7463 152.651 33.4473 152.651 28.5587C152.651 23.6702 148.58 20.3711 143.537 20.3711ZM143.537 33.6573C140.438 33.6573 137.946 31.7678 137.946 28.5587C137.946 25.3497 140.438 23.4602 143.537 23.4602C146.636 23.4602 149.127 25.3497 149.127 28.5587C149.127 31.7678 146.636 33.6573 143.537 33.6573Z" fill="#FFFFFF"></path>
<path d="M169.3 34.4352V36.4146H172.946V14.8809H169.3V22.6786C168.146 21.449 166.019 20.3692 163.102 20.3692C157.633 20.3692 154.353 24.0882 154.353 28.5569C154.353 33.0256 157.633 36.7445 163.102 36.7445C166.019 36.7445 168.146 35.6648 169.3 34.4352ZM169.483 28.4369V28.6769C169.483 31.556 166.931 33.7454 163.649 33.7454C160.49 33.7454 157.816 31.8859 157.816 28.5569C157.816 25.2279 160.49 23.3684 163.649 23.3684C166.931 23.3684 169.483 25.5577 169.483 28.4369Z" fill="#FFFFFF"></path>
<path d="M184.735 33.6872C181.758 33.6872 179.449 32.1277 178.962 29.6084H193.303V28.3488C193.303 23.8201 189.961 20.3711 184.735 20.3711C179.266 20.3711 175.499 23.9401 175.499 28.5587C175.499 33.4173 179.388 36.7463 184.735 36.7463C188.989 36.7463 192.027 34.437 192.999 31.9778L190.082 30.4482C189.292 32.3676 187.348 33.6872 184.735 33.6872ZM184.553 23.3702C187.53 23.3702 189.535 25.2597 189.778 26.9092H179.145C179.813 24.5999 182.001 23.3702 184.553 23.3702Z" fill="#FFFFFF"></path>
<path d="M191.573 17.3994C191.573 17.0832 191.651 16.806 191.788 16.5686C191.934 16.3312 192.131 16.1473 192.389 16.015C192.647 15.8836 192.947 15.8184 193.291 15.8184C193.634 15.8184 193.926 15.8836 194.184 16.015C194.442 16.1473 194.648 16.3312 194.785 16.5686C194.931 16.806 195 17.0832 195 17.3994C195 17.7156 194.931 17.9928 194.785 18.2302C194.648 18.4676 194.442 18.6524 194.184 18.7855C193.926 18.9186 193.634 18.9847 193.291 18.9847C192.947 18.9847 192.647 18.9186 192.389 18.7855C192.131 18.6524 191.934 18.4676 191.788 18.2302C191.651 17.9928 191.573 17.7156 191.573 17.3994ZM191.814 17.3994C191.814 17.6732 191.874 17.914 191.994 18.12C192.123 18.326 192.295 18.4871 192.518 18.6032C192.741 18.7194 192.999 18.777 193.291 18.777C193.583 18.777 193.84 18.7194 194.064 18.6032C194.287 18.4871 194.459 18.326 194.588 18.12C194.708 17.914 194.768 17.6732 194.768 17.3994C194.768 17.1256 194.708 16.8848 194.588 16.6788C194.459 16.4728 194.287 16.3117 194.064 16.1982C193.84 16.0837 193.583 16.0261 193.291 16.0261C192.999 16.0261 192.741 16.0837 192.518 16.1982C192.295 16.3117 192.123 16.4728 191.994 16.6788C191.874 16.8848 191.814 17.1256 191.814 17.3994ZM192.363 17.3994C192.363 17.2239 192.406 17.0722 192.484 16.9433C192.561 16.8153 192.673 16.7161 192.819 16.6466C192.965 16.5779 193.128 16.5432 193.317 16.5432C193.574 16.5432 193.78 16.5991 193.944 16.7102C194.107 16.8221 194.193 16.9688 194.21 17.1493H193.832C193.806 17.0476 193.746 16.9696 193.652 16.9162C193.557 16.8628 193.445 16.8357 193.317 16.8357C193.145 16.8357 192.999 16.8874 192.896 16.99C192.793 17.0934 192.741 17.2299 192.741 17.3994C192.741 17.5774 192.793 17.7156 192.896 17.8148C192.999 17.914 193.136 17.9632 193.317 17.9632C193.445 17.9632 193.566 17.9335 193.66 17.8742C193.755 17.8148 193.815 17.7343 193.84 17.6326H194.218C194.21 17.7597 194.158 17.8699 194.072 17.9632C193.986 18.0564 193.875 18.1293 193.737 18.1819C193.609 18.2336 193.463 18.2599 193.299 18.2599C193.016 18.2599 192.784 18.1819 192.612 18.0268C192.449 17.8716 192.363 17.6622 192.363 17.3994Z" fill="#FFFFFF"></path>
<defs>
<radialGradient id="svg1400587847_9070_paint0_radial_100_22524" cx="0" cy="0" r="1" gradientUnits="userSpaceOnUse" gradientTransform="translate(52.2058 5.28196) rotate(140.228) scale(60.1645 60.0667)">
<stop stop-color="white"></stop>
<stop offset="1" stop-color="#606060"></stop>
</radialGradient>
<radialGradient id="svg1400587847_9070_paint0_radial_100_22524" cx="0" cy="0" r="1" gradientUnits="userSpaceOnUse" gradientTransform="translate(52.2058 5.28196) rotate(140.228) scale(60.1645 60.0667)">
<stop stop-color="white"></stop>
<stop offset="1" stop-color="#606060"></stop>
</radialGradient><radialGradient id="svg1400587847_9070_paint0_radial_100_22524" cx="0" cy="0" r="1" gradientUnits="userSpaceOnUse" gradientTransform="translate(52.2058 5.28196) rotate(140.228) scale(60.1645 60.0667)">
<stop stop-color="white"></stop>
<stop offset="1" stop-color="#606060"></stop>
</radialGradient></defs>
</svg>