<svg xmlns="http://www.w3.org/2000/svg" xmlns:xlink="http://www.w3.org/1999/xlink" style="width: 100%; height: 100%" viewBox="0 0 17 17" preserveAspectRatio="none" width="17" height="17"><defs><svg width="17" height="17" viewBox="0 0 17 17" fill="none" xmlns="http://www.w3.org/2000/svg" id="svg272799353_4508">
<path fill-rule="evenodd" clip-rule="evenodd" d="M1.45819 9.98837C1.32819 10.0096 1.19504 9.97838 1.08857 9.90174C0.982095 9.8251 0.911281 9.70951 0.892061 9.58081C0.841859 9.22768 0.81543 8.86682 0.81543 8.49995C0.81543 8.1638 0.837687 7.83277 0.880681 7.50822C0.916593 7.24609 1.15875 7.06097 1.4248 7.0923C2.59284 7.22899 5.65742 7.58998 7.16056 7.76711C7.57469 7.81591 7.8855 8.16405 7.88234 8.57572C7.88221 8.58222 7.88222 8.58871 7.88222 8.5952C7.88222 8.60106 7.88222 8.60718 7.88222 8.61317C7.88361 8.80103 7.74616 8.96206 7.55837 8.99276C6.40956 9.18025 2.77127 9.77404 1.45819 9.98837ZM8.4338 7.20452C8.26714 7.38365 7.99691 7.42484 7.78346 7.30351C6.72265 6.7011 3.84384 5.06561 2.69552 4.41321C2.5711 4.34251 2.48422 4.22161 2.45767 4.08229C2.43124 3.94297 2.46791 3.7992 2.55795 3.68879C2.99357 3.16822 3.49685 2.70457 4.05539 2.31272C4.25316 2.17659 4.52188 2.20266 4.68892 2.37421C5.44536 3.14908 7.51019 5.26935 8.47553 6.2606C8.72135 6.51312 8.72059 6.91256 8.47376 7.16408C8.45985 7.17706 8.4467 7.19067 8.4338 7.20452ZM9.84779 6.54844C9.62701 6.55893 9.42329 6.43186 9.33781 6.23064C8.93607 5.28636 7.86502 2.7629 7.3783 1.6161C7.31786 1.47375 7.32962 1.3115 7.41017 1.17915C7.49059 1.04681 7.63007 0.96018 7.78574 0.94585C8.02106 0.925267 8.2593 0.914307 8.50006 0.914307C8.90812 0.914307 9.30885 0.945787 9.69997 1.0064C9.91936 1.04163 10.0874 1.21817 10.1094 1.4366C10.2002 2.33388 10.4353 4.67302 10.5577 5.89249C10.5745 6.0595 10.519 6.22577 10.4048 6.35022C10.2906 6.47467 10.1285 6.54557 9.95844 6.54557C9.92126 6.54557 9.88446 6.54657 9.84779 6.54844ZM11.3774 7.09942C11.1242 6.86787 11.0455 6.5045 11.1807 6.19107C11.5562 5.31786 12.2563 3.69383 12.6275 2.833C12.6879 2.693 12.8113 2.58907 12.9608 2.55231C13.1104 2.51555 13.2688 2.5502 13.3886 2.64592C13.8896 3.057 14.3385 3.52817 14.7219 4.04927C14.854 4.23218 14.8413 4.48085 14.691 4.64961C14.0125 5.41321 12.1934 7.45579 12.1934 7.45579C12.1934 7.45579 12.1932 7.45592 12.193 7.45629C12.1244 7.53269 12.0243 7.57388 11.9211 7.56801C11.8179 7.56227 11.7231 7.51022 11.6638 7.42671C11.5802 7.30775 11.484 7.19816 11.3774 7.09942ZM12.3271 7.83564C12.3285 7.83526 14.5025 7.32161 15.5167 7.08207C15.6514 7.05024 15.7937 7.07608 15.9081 7.15334C16.0226 7.23061 16.0987 7.35194 16.1175 7.4875C16.1614 7.81891 16.1846 8.15681 16.1846 8.49995C16.1846 8.6832 16.178 8.86482 16.1651 9.04482C16.1557 9.17376 16.0945 9.29359 15.9951 9.37772C15.8958 9.46198 15.7664 9.50342 15.6359 9.49294C14.9035 9.43477 13.5001 9.32218 12.6501 9.25415C12.3025 9.22619 12.0347 8.93959 12.0347 8.5952C12.0347 8.47312 12.0314 8.376 12.0191 8.28476C11.9903 8.07979 12.1239 7.88669 12.3279 7.83863C12.3271 7.83564 12.3271 7.83564 12.3271 7.83564ZM11.355 10.1112C11.6698 9.83134 12.1549 9.85618 12.4388 10.1666C13.0934 10.8809 14.0973 11.9786 14.5719 12.4976C14.7297 12.6701 14.7412 12.9291 14.5992 13.1147C14.2669 13.5401 13.8907 13.9305 13.4767 14.2784C13.3613 14.3736 13.2079 14.4112 13.0607 14.3802C12.9135 14.3492 12.7889 14.2531 12.7229 14.1197C12.3258 13.3207 11.5852 11.8229 11.179 11.0009C11.0296 10.6989 11.1009 10.3355 11.354 10.1104C11.3548 10.1113 11.3548 10.1113 11.355 10.1112ZM9.95844 10.6446C10.1114 10.6446 10.2576 10.7079 10.3613 10.819C10.4651 10.93 10.5171 11.0788 10.5047 11.2295C10.4105 12.3726 10.2223 14.6577 10.149 15.5489C10.1308 15.7701 9.96274 15.951 9.74094 15.9878C9.3368 16.052 8.92241 16.0857 8.50006 16.0857C8.24994 16.0857 8.00247 16.0738 7.75842 16.0507C7.60756 16.0363 7.47201 15.9537 7.39108 15.8272C7.31028 15.7006 7.2932 15.5442 7.34505 15.4035C7.71796 14.3882 8.50297 12.2557 8.90547 11.1627C9.03331 10.8152 9.38384 10.5978 9.7565 10.6345C9.82288 10.6413 9.89028 10.6446 9.95844 10.6446ZM8.44607 9.99873C8.67823 10.2444 8.66799 10.6285 8.42305 10.8619C7.44368 11.7952 5.32548 13.8123 4.55134 14.5493C4.37949 14.7131 4.11318 14.731 3.92034 14.5919C3.44665 14.2427 3.01418 13.8416 2.63268 13.3967C2.53999 13.2866 2.50155 13.1414 2.52772 13.0005C2.55402 12.8596 2.64229 12.7375 2.76861 12.6671C3.90403 12.0329 6.67915 10.4875 7.74907 9.89188C7.97845 9.76406 8.26663 9.80799 8.4462 9.9981C8.44582 9.9986 8.44594 9.9986 8.44607 9.99873Z" fill="url(&quot;#svg272799353_4508_paint0_linear_100_22369&quot;)"></path>
<defs>
<linearGradient id="svg272799353_4508_paint0_linear_100_22369" x1="8.5" y1="0.914307" x2="8.5" y2="16.0857" gradientUnits="userSpaceOnUse">
<stop stop-color="white"></stop>
<stop offset="1" stop-color="#999999" stop-opacity="0.1"></stop>
</linearGradient>
<linearGradient id="svg272799353_4508_paint0_linear_100_22369" x1="8.5" y1="0.914307" x2="8.5" y2="16.0857" gradientUnits="userSpaceOnUse">
<stop stop-color="white"></stop>
<stop offset="1" stop-color="#999999" stop-opacity="0.1"></stop>
</linearGradient><linearGradient id="svg272799353_4508_paint0_linear_100_22369" x1="8.5" y1="0.914307" x2="8.5" y2="16.0857" gradientUnits="userSpaceOnUse">
<stop stop-color="white"></stop>
<stop offset="1" stop-color="#999999" stop-opacity="0.1"></stop>
</linearGradient><linearGradient id="svg272799353_4508_paint0_linear_100_22369" x1="8.5" y1="0.914307" x2="8.5" y2="16.0857" gradientUnits="userSpaceOnUse">
<stop stop-color="white"></stop>
<stop offset="1" stop-color="#999999" stop-opacity="0.1"></stop>
</linearGradient></defs>
</svg></defs><use href="#svg272799353_4508"></use></svg>