<svg xmlns="http://www.w3.org/2000/svg" xmlns:xlink="http://www.w3.org/1999/xlink" style="width: 100%; height: 100%" viewBox="0 0 28 28" preserveAspectRatio="none" width="28" height="28"><defs><svg width="28" height="28" viewBox="0 0 28 28" fill="none" xmlns="http://www.w3.org/2000/svg" id="svg-684551056_1396">
<g clip-path="url(#svg-684551056_1396_clip0_241_6637)" fill="none">
<path d="M9.33301 7C11.1895 7 12.97 7.7375 14.2828 9.05025C15.5955 10.363 16.333 12.1435 16.333 14C16.333 15.8565 15.5955 17.637 14.2828 18.9497C12.97 20.2625 11.1895 21 9.33301 21C7.47649 21 5.69602 20.2625 4.38326 18.9497C3.07051 17.637 2.33301 15.8565 2.33301 14C2.33301 12.1435 3.07051 10.363 4.38326 9.05025C5.69602 7.7375 7.47649 7 9.33301 7ZM19.833 8.16667C21.583 8.16667 22.7497 10.7788 22.7497 14C22.7497 17.2212 21.583 19.8333 19.833 19.8333C18.083 19.8333 16.9163 17.2212 16.9163 14C16.9163 10.7788 18.083 8.16667 19.833 8.16667ZM24.4997 8.75C24.943 8.75 25.3303 9.71483 25.5263 11.3703L25.5812 11.8872L25.6033 12.1613L25.6383 12.7377L25.65 13.0398L25.664 13.671L25.6663 14L25.664 14.329L25.65 14.9602L25.6383 15.2635L25.6033 15.8387L25.58 16.1128L25.5275 16.6297C25.3303 18.2863 24.9442 19.25 24.4997 19.25C24.0563 19.25 23.669 18.2852 23.473 16.6297L23.4182 16.1128C23.4101 16.0215 23.4028 15.9301 23.396 15.8387L23.361 15.2623C23.3565 15.1616 23.3526 15.0609 23.3493 14.9602L23.3353 14.329V13.671L23.3493 13.0398L23.361 12.7365L23.396 12.1613L23.4193 11.8872L23.4718 11.3703C23.669 9.71367 24.0552 8.75 24.4997 8.75Z" fill="#FF5634"></path>
</g>
<defs>
<clipPath id="svg-684551056_1396_clip0_241_6637">
<rect width="28" height="28" fill="white"></rect>
</clipPath>
</defs>
</svg></defs><use href="#svg-684551056_1396"></use></svg>