<svg xmlns="http://www.w3.org/2000/svg" xmlns:xlink="http://www.w3.org/1999/xlink" style="width: 100%; height: 100%" viewBox="0 0 179 44" preserveAspectRatio="none" width="179" height="44"><defs><svg width="179" height="44" viewBox="0 0 179 44" fill="none" xmlns="http://www.w3.org/2000/svg" id="svg768855886_9261">
<g clip-path="url(#svg768855886_9261_clip0_100_21979)" fill="none">
<path fill-rule="evenodd" clip-rule="evenodd" d="M6.33343 26.3325C5.95503 26.3943 5.56743 26.3034 5.25749 26.0803C4.94756 25.8572 4.74142 25.5207 4.68547 25.1461C4.53934 24.1182 4.4624 23.0677 4.4624 21.9998C4.4624 21.0213 4.52719 20.0577 4.65235 19.1129C4.75688 18.3499 5.46178 17.811 6.23625 17.9022C9.63634 18.3001 18.5571 19.3509 22.9327 19.8665C24.1382 20.0086 25.043 21.022 25.0337 22.2204C25.0334 22.2393 25.0334 22.2582 25.0334 22.2771C25.0334 22.2941 25.0334 22.3119 25.0334 22.3294C25.0374 22.8762 24.6373 23.345 24.0907 23.4343C20.7466 23.9801 10.1557 25.7086 6.33343 26.3325ZM26.639 18.2289C26.1539 18.7503 25.3672 18.8702 24.7459 18.517C21.658 16.7635 13.2779 12.0026 9.93524 10.1036C9.57304 9.89775 9.32016 9.5458 9.24286 9.14026C9.16592 8.73471 9.27268 8.3162 9.53476 7.99481C10.8028 6.47946 12.2679 5.12981 13.8937 3.98915C14.4694 3.59288 15.2516 3.66878 15.7379 4.16814C17.9398 6.42376 23.9505 12.5957 26.7605 15.4812C27.4761 16.2162 27.4739 17.379 26.7553 18.1112C26.7148 18.1489 26.6766 18.1886 26.639 18.2289ZM30.7551 16.3191C30.1124 16.3496 29.5194 15.9797 29.2705 15.394C28.1011 12.6452 24.9833 5.2996 23.5665 1.96133C23.3906 1.54696 23.4248 1.07466 23.6593 0.689395C23.8934 0.304163 24.2994 0.0519924 24.7525 0.0102789C25.4376 -0.0496388 26.131 -0.081543 26.8319 -0.081543C28.0197 -0.081543 29.1862 0.0100955 30.3248 0.186542C30.9634 0.289082 31.4526 0.80298 31.5166 1.43882C31.7809 4.05074 32.4652 10.8598 32.8215 14.4096C32.8705 14.8958 32.7089 15.3798 32.3765 15.7421C32.0441 16.1043 31.5722 16.3107 31.0771 16.3107C30.9689 16.3107 30.8618 16.3136 30.7551 16.3191ZM35.2075 17.9229C34.4706 17.2489 34.2417 16.1912 34.6351 15.2788C35.728 12.7369 37.7662 8.00949 38.8465 5.50366C39.0225 5.09612 39.3817 4.79359 39.8168 4.68658C40.2523 4.57957 40.7135 4.68044 41.0621 4.95906C42.5205 6.15571 43.8272 7.52724 44.9433 9.04415C45.3279 9.57658 45.2908 10.3005 44.8535 10.7917C42.8783 13.0145 37.5829 18.9603 37.5829 18.9603C37.5829 18.9603 37.5825 18.9607 37.5817 18.9618C37.3822 19.1842 37.0907 19.3041 36.7903 19.287C36.49 19.2703 36.2139 19.1188 36.0413 18.8757C35.7979 18.5294 35.5178 18.2104 35.2075 17.9229ZM37.9723 20.066C37.9763 20.0649 44.3046 18.5697 47.2568 17.8724C47.6491 17.7798 48.0633 17.855 48.3964 18.0799C48.7295 18.3048 48.9511 18.658 49.0059 19.0526C49.1337 20.0173 49.201 21.0009 49.201 21.9998C49.201 22.5332 49.1819 23.0619 49.1443 23.5859C49.1171 23.9612 48.9389 24.31 48.6496 24.5549C48.3603 24.8002 47.9837 24.9208 47.6039 24.8903C45.4719 24.721 41.3867 24.3933 38.9124 24.1952C37.9005 24.1138 37.1209 23.2796 37.1209 22.2771C37.1209 21.9217 37.1113 21.639 37.0756 21.3734C36.9917 20.7768 37.3808 20.2146 37.9745 20.0747C37.9723 20.066 37.9723 20.066 37.9723 20.066ZM35.1424 26.69C36.0589 25.8754 37.4709 25.9477 38.2973 26.8514C40.2029 28.9305 43.1252 32.1259 44.5067 33.6367C44.9661 34.1389 44.9996 34.8928 44.5862 35.4332C43.6189 36.6715 42.5238 37.8077 41.3186 38.8204C40.9826 39.0976 40.5361 39.207 40.1076 39.1169C39.6791 39.0268 39.3166 38.747 39.1244 38.3585C37.9682 36.0327 35.8127 31.6728 34.63 29.28C34.1953 28.4007 34.4029 27.343 35.1394 26.6879C35.142 26.6904 35.142 26.6904 35.1424 26.69ZM31.0771 28.2427C31.5225 28.2427 31.948 28.4269 32.2499 28.7503C32.5521 29.0737 32.7034 29.5068 32.6673 29.9454C32.3931 33.273 31.8453 39.9246 31.6318 42.519C31.5788 43.1629 31.0897 43.6894 30.444 43.7966C29.2676 43.9833 28.0613 44.0814 26.8319 44.0814C26.1038 44.0814 25.3834 44.0469 24.673 43.9797C24.2339 43.9375 23.8393 43.6974 23.6037 43.3289C23.3685 42.9605 23.3188 42.5052 23.4697 42.0957C24.5552 39.1401 26.8404 32.9325 28.012 29.751C28.3842 28.7394 29.4045 28.1064 30.4893 28.2132C30.6825 28.2332 30.8787 28.2427 31.0771 28.2427ZM26.6747 26.3627C27.3505 27.0777 27.3207 28.1958 26.6077 28.8753C23.7568 31.5921 17.5909 37.4636 15.3374 39.6092C14.8372 40.0859 14.062 40.1379 13.5006 39.7331C12.1217 38.7164 10.8628 37.549 9.75229 36.254C9.48248 35.9335 9.37059 35.5109 9.44678 35.1007C9.52334 34.6904 9.78027 34.3351 10.148 34.1301C13.4531 32.2839 21.5313 27.7856 24.6458 26.0516C25.3135 25.6795 26.1524 25.8074 26.6751 26.3608C26.674 26.3623 26.6744 26.3623 26.6747 26.3627Z" fill="url(&quot;#svg768855886_9261_paint0_radial_100_21979&quot;)"></path>
<path d="M67.9636 12.0139C61.4978 12.0139 56.7812 16.1207 56.7812 21.6923C56.7812 27.264 61.4978 31.3707 67.9636 31.3707C74.3763 31.3707 79.0931 27.264 79.0931 21.6923C79.0931 16.1207 74.3763 12.0139 67.9636 12.0139ZM67.9636 14.9698C72.5214 14.9698 75.6482 17.6902 75.6482 21.6923C75.6482 25.6945 72.5214 28.4149 67.9636 28.4149C63.3528 28.4149 60.2789 25.6945 60.2789 21.6923C60.2789 17.6902 63.3528 14.9698 67.9636 14.9698Z" fill="#FFFFFF"></path>
<path d="M84.4982 29.3567C85.5052 30.4291 87.3602 31.3708 89.9041 31.3708C94.6739 31.3708 97.5355 28.1273 97.5355 24.2297C97.5355 20.3322 94.6739 17.0886 89.9041 17.0886C87.3602 17.0886 85.5052 18.0303 84.4982 19.1028V17.3502H81.3184V35.7915H84.4982V29.3567ZM84.3393 24.1251C84.3393 21.6139 86.565 19.7044 89.4269 19.7044C92.1828 19.7044 94.5145 21.3262 94.5145 24.2297C94.5145 27.1333 92.1828 28.755 89.4269 28.755C86.565 28.755 84.3393 26.8455 84.3393 24.3344V24.1251Z" fill="#FFFFFF"></path>
<path d="M119.212 12.3018H115.979V26.2439L103.524 12.3018H100.027V31.0831H103.26V16.5132L116.244 31.0831H119.212V12.3018Z" fill="#FFFFFF"></path>
<path d="M129.653 17.0886C125.254 17.0886 121.703 19.966 121.703 24.2297C121.703 28.4935 125.254 31.3708 129.653 31.3708C134.052 31.3708 137.602 28.4935 137.602 24.2297C137.602 19.966 134.052 17.0886 129.653 17.0886ZM129.653 28.6766C126.95 28.6766 124.777 27.0286 124.777 24.2297C124.777 21.4308 126.95 19.7829 129.653 19.7829C132.356 19.7829 134.528 21.4308 134.528 24.2297C134.528 27.0286 132.356 28.6766 129.653 28.6766Z" fill="#FFFFFF"></path>
<path d="M152.123 29.3567V31.0831H155.303V12.3018H152.123V19.1028C151.116 18.0303 149.261 17.0886 146.717 17.0886C141.948 17.0886 139.086 20.3322 139.086 24.2297C139.086 28.1273 141.948 31.3708 146.717 31.3708C149.261 31.3708 151.116 30.4292 152.123 29.3567ZM152.282 24.1251V24.3344C152.282 26.8455 150.056 28.755 147.194 28.755C144.439 28.755 142.107 27.1333 142.107 24.2297C142.107 21.3262 144.439 19.7044 147.194 19.7044C150.056 19.7044 152.282 21.614 152.282 24.1251Z" fill="#FFFFFF"></path>
<path d="M165.585 28.7027C162.988 28.7027 160.974 27.3425 160.55 25.1453H173.058V24.0466C173.058 20.0968 170.143 17.0886 165.585 17.0886C160.815 17.0886 157.529 20.2014 157.529 24.2297C157.529 28.4673 160.921 31.3708 165.585 31.3708C169.295 31.3708 171.945 29.3567 172.793 27.2117L170.249 25.8777C169.56 27.5518 167.864 28.7027 165.585 28.7027ZM165.426 19.7044C168.023 19.7044 169.772 21.3524 169.984 22.7911H160.709C161.292 20.7769 163.2 19.7044 165.426 19.7044Z" fill="#FFFFFF"></path>
<path d="M171.549 14.4991C171.549 14.2233 171.617 13.9815 171.737 13.7745C171.864 13.5674 172.036 13.407 172.261 13.2917C172.486 13.1771 172.748 13.1201 173.047 13.1201C173.347 13.1201 173.602 13.1771 173.826 13.2917C174.051 13.407 174.231 13.5674 174.351 13.7745C174.478 13.9815 174.538 14.2233 174.538 14.4991C174.538 14.7749 174.478 15.0167 174.351 15.2237C174.231 15.4307 174.051 15.5919 173.826 15.708C173.602 15.8241 173.347 15.8818 173.047 15.8818C172.748 15.8818 172.486 15.8241 172.261 15.708C172.036 15.5919 171.864 15.4307 171.737 15.2237C171.617 15.0167 171.549 14.7749 171.549 14.4991ZM171.759 14.4991C171.759 14.7379 171.811 14.9479 171.916 15.1276C172.029 15.3072 172.179 15.4477 172.373 15.549C172.568 15.6503 172.793 15.7006 173.047 15.7006C173.302 15.7006 173.527 15.6503 173.722 15.549C173.916 15.4477 174.066 15.3072 174.178 15.1276C174.283 14.9479 174.336 14.7379 174.336 14.4991C174.336 14.2603 174.283 14.0503 174.178 13.8706C174.066 13.6909 173.916 13.5504 173.722 13.4514C173.527 13.3515 173.302 13.3013 173.047 13.3013C172.793 13.3013 172.568 13.3515 172.373 13.4514C172.179 13.5504 172.029 13.6909 171.916 13.8706C171.811 14.0503 171.759 14.2603 171.759 14.4991ZM172.238 14.4991C172.238 14.346 172.276 14.2137 172.343 14.1013C172.411 13.9896 172.508 13.9031 172.635 13.8425C172.763 13.7826 172.905 13.7523 173.07 13.7523C173.295 13.7523 173.474 13.8011 173.617 13.898C173.759 13.9956 173.834 14.1235 173.849 14.281H173.519C173.497 14.1922 173.444 14.1242 173.362 14.0776C173.28 14.0311 173.182 14.0074 173.07 14.0074C172.92 14.0074 172.793 14.0525 172.703 14.142C172.613 14.2322 172.568 14.3512 172.568 14.4991C172.568 14.6544 172.613 14.7749 172.703 14.8614C172.793 14.9479 172.913 14.9908 173.07 14.9908C173.182 14.9908 173.287 14.9649 173.369 14.9131C173.452 14.8614 173.504 14.7911 173.527 14.7024H173.856C173.849 14.8133 173.804 14.9095 173.729 14.9908C173.654 15.0721 173.557 15.1357 173.437 15.1815C173.325 15.2267 173.197 15.2496 173.055 15.2496C172.808 15.2496 172.605 15.1816 172.456 15.0462C172.313 14.9109 172.238 14.7283 172.238 14.4991Z" fill="#FFFFFF"></path>
</g>
<defs>
<radialGradient id="svg768855886_9261_paint0_radial_100_21979" cx="0" cy="0" r="1" gradientUnits="userSpaceOnUse" gradientTransform="translate(49.9954 3.92992) rotate(140.228) scale(52.4744 52.3891)">
<stop stop-color="#FF9C9C"></stop>
<stop offset="1" stop-color="#630505"></stop>
</radialGradient>
<clipPath id="svg768855886_9261_clip0_100_21979">
<rect width="179" height="44" fill="white"></rect>
</clipPath>
<radialGradient id="svg768855886_9261_paint0_radial_100_21979" cx="0" cy="0" r="1" gradientUnits="userSpaceOnUse" gradientTransform="translate(49.9954 3.92992) rotate(140.228) scale(52.4744 52.3891)">
<stop stop-color="#FF9C9C"></stop>
<stop offset="1" stop-color="#630505"></stop>
</radialGradient><radialGradient id="svg768855886_9261_paint0_radial_100_21979" cx="0" cy="0" r="1" gradientUnits="userSpaceOnUse" gradientTransform="translate(49.9954 3.92992) rotate(140.228) scale(52.4744 52.3891)">
<stop stop-color="#FF9C9C"></stop>
<stop offset="1" stop-color="#630505"></stop>
</radialGradient><radialGradient id="svg768855886_9261_paint0_radial_100_21979" cx="0" cy="0" r="1" gradientUnits="userSpaceOnUse" gradientTransform="translate(49.9954 3.92992) rotate(140.228) scale(52.4744 52.3891)">
<stop stop-color="#FF9C9C"></stop>
<stop offset="1" stop-color="#630505"></stop>
</radialGradient></defs>
</svg></defs><use href="#svg768855886_9261"></use></svg>