<svg xmlns:xlink="http://www.w3.org/1999/xlink" width="153" height="37" viewBox="0 0 153 37" fill="none" xmlns="http://www.w3.org/2000/svg" id="svg-256927038_9955">
<mask id="svg-256927038_9955_path-1-inside-1_100_22447" fill="#FFFFFF">
<path d="M0 0H10.4809V10.4809H0V0Z" fill="#FFFFFF"></path>
</mask>
<path d="M0 0V-0.748634H-0.748634V0H0ZM0 0.748634H10.4809V-0.748634H0V0.748634ZM0.748634 10.4809V0H-0.748634V10.4809H0.748634Z" fill="#FFFFFF" mask="url(#svg-256927038_9955_path-1-inside-1_100_22447)"></path>
<mask id="svg-256927038_9955_path-3-inside-2_100_22447" fill="#FFFFFF">
<path d="M150.481 36.6831L140 36.6831L140 26.2022L150.481 26.2022L150.481 36.6831Z" fill="#FFFFFF"></path>
</mask>
<path d="M150.481 36.6831L150.481 37.4317L151.23 37.4317L151.23 36.6831L150.481 36.6831ZM150.481 35.9345L140 35.9345L140 37.4317L150.481 37.4317L150.481 35.9345ZM149.732 26.2022L149.732 36.6831L151.23 36.6831L151.23 26.2022L149.732 26.2022Z" fill="#FFFFFF" mask="url(#svg-256927038_9955_path-3-inside-2_100_22447)"></path>
<g clip-path="url(#svg-256927038_9955_clip0_100_22447)" fill="none">
<path fill-rule="evenodd" clip-rule="evenodd" d="M14.2386 23.7437C13.9553 23.7899 13.6651 23.7219 13.4331 23.5549C13.2011 23.3879 13.0468 23.136 13.0049 22.8555C12.8955 22.086 12.8379 21.2996 12.8379 20.5001C12.8379 19.7675 12.8864 19.0461 12.9801 18.3389C13.0583 17.7676 13.5861 17.3642 14.1659 17.4325C16.7113 17.7304 23.3897 18.5171 26.6654 18.9031C27.5679 19.0094 28.2452 19.7681 28.2383 20.6652C28.238 20.6794 28.238 20.6935 28.238 20.7076C28.238 20.7204 28.238 20.7338 28.238 20.7468C28.2411 21.1562 27.9415 21.5071 27.5323 21.574C25.0288 21.9826 17.1001 23.2766 14.2386 23.7437ZM29.4401 17.677C29.0769 18.0674 28.488 18.1572 28.0228 17.8928C25.7111 16.58 19.4375 13.0159 16.935 11.5941C16.6639 11.4401 16.4746 11.1766 16.4167 10.873C16.3591 10.5694 16.439 10.2561 16.6352 10.0155C17.5846 8.88103 18.6813 7.87063 19.8985 7.0167C20.3295 6.72003 20.9151 6.77686 21.2791 7.1507C22.9276 8.83933 27.4273 13.4599 29.531 15.62C30.0667 16.1703 30.065 17.0408 29.5271 17.5889C29.4968 17.6172 29.4682 17.6469 29.4401 17.677ZM32.5215 16.2473C32.0403 16.2702 31.5964 15.9932 31.4101 15.5547C30.5346 13.4969 28.2005 7.99775 27.1399 5.4986C27.0082 5.18839 27.0338 4.83481 27.2093 4.54639C27.3846 4.25799 27.6885 4.06921 28.0278 4.03798C28.5406 3.99312 29.0598 3.96924 29.5845 3.96924C30.4737 3.96924 31.347 4.03784 32.1993 4.16994C32.6774 4.2467 33.0437 4.63142 33.0916 5.10743C33.2895 7.06281 33.8018 12.1603 34.0685 14.8178C34.1052 15.1818 33.9842 15.5441 33.7353 15.8153C33.4865 16.0865 33.1332 16.241 32.7626 16.241C32.6816 16.241 32.6014 16.2432 32.5215 16.2473ZM35.8547 17.448C35.303 16.9434 35.1316 16.1515 35.4262 15.4685C36.2444 13.5656 37.7702 10.0265 38.579 8.15051C38.7107 7.84541 38.9797 7.61893 39.3054 7.53882C39.6314 7.45871 39.9767 7.53422 40.2377 7.74281C41.3295 8.63866 42.3077 9.66543 43.1432 10.801C43.4312 11.1996 43.4034 11.7416 43.076 12.1093C41.5973 13.7734 37.633 18.2246 37.633 18.2246C37.633 18.2246 37.6327 18.2249 37.6321 18.2257C37.4828 18.3922 37.2645 18.482 37.0397 18.4692C36.8148 18.4567 36.6081 18.3432 36.4789 18.1612C36.2967 17.902 36.087 17.6632 35.8547 17.448ZM37.9245 19.0524C37.9276 19.0516 42.6651 17.9322 44.8752 17.4102C45.169 17.3408 45.479 17.3971 45.7284 17.5655C45.9777 17.7339 46.1436 17.9983 46.1847 18.2937C46.2803 19.0159 46.3307 19.7523 46.3307 20.5001C46.3307 20.8994 46.3164 21.2952 46.2883 21.6875C46.2679 21.9685 46.1345 22.2296 45.9179 22.413C45.7013 22.5966 45.4194 22.6869 45.135 22.664C43.539 22.5373 40.4807 22.2919 38.6283 22.1436C37.8708 22.0827 37.2871 21.4582 37.2871 20.7076C37.2871 20.4416 37.28 20.23 37.2532 20.0311C37.1904 19.5845 37.4817 19.1636 37.9262 19.0589C37.9245 19.0524 37.9245 19.0524 37.9245 19.0524ZM35.806 24.0113C36.4921 23.4015 37.5492 23.4556 38.1679 24.1321C39.5945 25.6886 41.7822 28.0808 42.8164 29.2119C43.1603 29.5878 43.1854 30.1522 42.8759 30.5567C42.1517 31.4838 41.3319 32.3344 40.4297 33.0925C40.1781 33.3001 39.8439 33.382 39.5231 33.3145C39.2023 33.247 38.9309 33.0376 38.7871 32.7468C37.9215 31.0056 36.3078 27.7416 35.4224 25.9503C35.0969 25.292 35.2523 24.5002 35.8038 24.0097C35.8057 24.0116 35.8057 24.0116 35.806 24.0113ZM32.7626 25.1737C33.096 25.1737 33.4146 25.3116 33.6405 25.5537C33.8668 25.7958 33.98 26.1201 33.953 26.4484C33.7477 28.9396 33.3377 33.9192 33.1779 35.8614C33.1382 36.3435 32.772 36.7376 32.2886 36.8179C31.4079 36.9577 30.5049 37.0311 29.5845 37.0311C29.0394 37.0311 28.5001 37.0053 27.9682 36.955C27.6395 36.9234 27.3441 36.7436 27.1677 36.4678C26.9916 36.1919 26.9544 35.8511 27.0674 35.5445C27.8801 33.3319 29.5908 28.6847 30.4679 26.3029C30.7465 25.5456 31.5104 25.0717 32.3225 25.1517C32.4672 25.1666 32.6141 25.1737 32.7626 25.1737ZM29.4668 23.7663C29.9727 24.3016 29.9504 25.1386 29.4166 25.6473C27.2824 27.6812 22.6663 32.0768 20.9793 33.6831C20.6048 34.04 20.0244 34.0789 19.6042 33.7758C18.5719 33.0147 17.6295 32.1407 16.7981 31.1712C16.5961 30.9313 16.5123 30.615 16.5694 30.3078C16.6267 30.0007 16.819 29.7347 17.0943 29.5813C19.5686 28.1991 25.6163 24.8315 27.9479 23.5334C28.4477 23.2549 29.0758 23.3506 29.4671 23.7649C29.4662 23.766 29.4665 23.766 29.4668 23.7663Z" fill="url(&quot;#svg-256927038_9955_paint0_radial_100_22447&quot;)"></path>
<path d="M60.3768 13.0244C55.5364 13.0244 52.0054 16.0989 52.0054 20.27C52.0054 24.4411 55.5364 27.5156 60.3768 27.5156C65.1776 27.5156 68.7088 24.4411 68.7088 20.27C68.7088 16.0989 65.1776 13.0244 60.3768 13.0244ZM60.3768 15.2373C63.789 15.2373 66.1298 17.2739 66.1298 20.27C66.1298 23.2662 63.789 25.3028 60.3768 25.3028C56.925 25.3028 54.6238 23.2662 54.6238 20.27C54.6238 17.2739 56.925 15.2373 60.3768 15.2373Z" fill="#FFFFFF"></path>
<path d="M72.7553 26.0075C73.5092 26.8104 74.8979 27.5154 76.8023 27.5154C80.3732 27.5154 82.5154 25.0871 82.5154 22.1693C82.5154 19.2515 80.3732 16.8232 76.8023 16.8232C74.8979 16.8232 73.5092 17.5282 72.7553 18.3311V17.0191H70.3748V30.8249H72.7553V26.0075ZM72.6364 22.091C72.6364 20.2111 74.3026 18.7815 76.4451 18.7815C78.5082 18.7815 80.2538 19.9956 80.2538 22.1693C80.2538 24.343 78.5082 25.5571 76.4451 25.5571C74.3026 25.5571 72.6364 24.1276 72.6364 22.2477V22.091Z" fill="#FFFFFF"></path>
<path d="M98.7434 13.2397H96.3229V23.6773L86.9991 13.2397H84.3806V27.3001H86.8007V16.3926L96.5213 27.3001H98.7434V13.2397Z" fill="#FFFFFF"></path>
<path d="M106.56 16.8232C103.266 16.8232 100.608 18.9773 100.608 22.1693C100.608 25.3613 103.266 27.5154 106.56 27.5154C109.853 27.5154 112.511 25.3613 112.511 22.1693C112.511 18.9773 109.853 16.8232 106.56 16.8232ZM106.56 25.4984C104.536 25.4984 102.909 24.2647 102.909 22.1693C102.909 20.074 104.536 18.8403 106.56 18.8403C108.583 18.8403 110.209 20.074 110.209 22.1693C110.209 24.2647 108.583 25.4984 106.56 25.4984Z" fill="#FFFFFF"></path>
<path d="M123.382 26.0076V27.3001H125.762V13.2397H123.382V18.3312C122.628 17.5284 121.239 16.8234 119.335 16.8234C115.764 16.8234 113.622 19.2516 113.622 22.1694C113.622 25.0873 115.764 27.5155 119.335 27.5155C121.239 27.5155 122.628 26.8105 123.382 26.0076ZM123.501 22.0911V22.2478C123.501 24.1277 121.834 25.5572 119.692 25.5572C117.629 25.5572 115.883 24.3431 115.883 22.1694C115.883 19.9958 117.629 18.7816 119.692 18.7816C121.834 18.7816 123.501 20.2112 123.501 22.0911Z" fill="#FFFFFF"></path>
<path d="M133.46 25.518C131.516 25.518 130.008 24.4997 129.691 22.8547H139.054V22.0322C139.054 19.0752 136.872 16.8232 133.46 16.8232C129.889 16.8232 127.429 19.1536 127.429 22.1693C127.429 25.3417 129.968 27.5154 133.46 27.5154C136.237 27.5154 138.221 26.0075 138.856 24.4018L136.951 23.403C136.435 24.6563 135.166 25.518 133.46 25.518ZM133.341 18.7815C135.285 18.7815 136.594 20.0152 136.753 21.0923H129.81C130.246 19.5844 131.674 18.7815 133.341 18.7815Z" fill="#FFFFFF"></path>
<path d="M137.925 14.8849C137.925 14.6784 137.975 14.4974 138.065 14.3424C138.16 14.1874 138.289 14.0673 138.458 13.981C138.626 13.8952 138.822 13.8525 139.046 13.8525C139.271 13.8525 139.461 13.8952 139.629 13.981C139.798 14.0673 139.932 14.1874 140.022 14.3424C140.117 14.4974 140.162 14.6784 140.162 14.8849C140.162 15.0914 140.117 15.2724 140.022 15.4274C139.932 15.5823 139.798 15.703 139.629 15.7899C139.461 15.8768 139.271 15.92 139.046 15.92C138.822 15.92 138.626 15.8768 138.458 15.7899C138.289 15.703 138.16 15.5823 138.065 15.4274C137.975 15.2724 137.925 15.0914 137.925 14.8849ZM138.082 14.8849C138.082 15.0637 138.121 15.2209 138.2 15.3554C138.284 15.4899 138.396 15.5951 138.542 15.6709C138.687 15.7467 138.856 15.7844 139.046 15.7844C139.237 15.7844 139.405 15.7467 139.551 15.6709C139.697 15.5951 139.809 15.4899 139.893 15.3554C139.972 15.2209 140.011 15.0637 140.011 14.8849C140.011 14.7061 139.972 14.5489 139.893 14.4144C139.809 14.2799 139.697 14.1747 139.551 14.1005C139.405 14.0258 139.237 13.9882 139.046 13.9882C138.856 13.9882 138.687 14.0258 138.542 14.1005C138.396 14.1747 138.284 14.2799 138.2 14.4144C138.121 14.5489 138.082 14.7061 138.082 14.8849ZM138.441 14.8849C138.441 14.7703 138.469 14.6712 138.519 14.5871C138.57 14.5035 138.643 14.4387 138.738 14.3933C138.833 14.3485 138.94 14.3258 139.063 14.3258C139.231 14.3258 139.366 14.3623 139.472 14.4349C139.579 14.5079 139.635 14.6037 139.646 14.7216H139.4C139.383 14.6552 139.344 14.6042 139.282 14.5694C139.22 14.5345 139.147 14.5168 139.063 14.5168C138.951 14.5168 138.856 14.5506 138.788 14.6175C138.721 14.6851 138.687 14.7742 138.687 14.8849C138.687 15.0011 138.721 15.0914 138.788 15.1561C138.856 15.2209 138.945 15.253 139.063 15.253C139.147 15.253 139.226 15.2336 139.287 15.1949C139.349 15.1561 139.388 15.1035 139.405 15.0371H139.652C139.646 15.1201 139.613 15.1921 139.557 15.253C139.5 15.3139 139.428 15.3615 139.338 15.3958C139.254 15.4296 139.158 15.4467 139.052 15.4467C138.867 15.4467 138.715 15.3958 138.603 15.2945C138.497 15.1932 138.441 15.0565 138.441 14.8849Z" fill="#FFFFFF"></path>
</g>
<defs>
<radialGradient id="svg-256927038_9955_paint0_radial_100_22447" cx="0" cy="0" r="1" gradientUnits="userSpaceOnUse" gradientTransform="translate(46.9254 6.97236) rotate(140.228) scale(39.2841 39.2202)">
<stop stop-color="#FF9C9C"></stop>
<stop offset="1" stop-color="#630505"></stop>
</radialGradient>
<clipPath id="svg-256927038_9955_clip0_100_22447">
<rect width="153" height="33" fill="white" transform="translate(0 4)"></rect>
</clipPath>
<radialGradient id="svg-256927038_9955_paint0_radial_100_22447" cx="0" cy="0" r="1" gradientUnits="userSpaceOnUse" gradientTransform="translate(46.9254 6.97236) rotate(140.228) scale(39.2841 39.2202)">
<stop stop-color="#FF9C9C"></stop>
<stop offset="1" stop-color="#630505"></stop>
</radialGradient></defs>
</svg>