<svg xmlns="http://www.w3.org/2000/svg" xmlns:xlink="http://www.w3.org/1999/xlink" style="width: 100%; height: 100%" viewBox="0 0 26 26" preserveAspectRatio="none" width="26" height="26"><defs><svg width="26" height="26" viewBox="0 0 26 26" fill="none" xmlns="http://www.w3.org/2000/svg" id="svg-1515135370_1101">
<path d="M23.4661 6.26875C22.6616 6.63442 21.7944 6.87472 20.8959 6.98965C21.8153 6.43592 22.5258 5.5583 22.8601 4.50308C21.993 5.02547 21.0318 5.39114 20.0183 5.60009C19.193 4.70159 18.0333 4.1792 16.7168 4.1792C14.2616 4.1792 12.2556 6.18517 12.2556 8.66129C12.2556 9.01651 12.2974 9.36129 12.3706 9.68517C8.65117 9.49711 5.33923 7.71054 3.13475 5.00457C2.74818 5.66278 2.52878 6.43592 2.52878 7.25084C2.52878 8.80756 3.31236 10.1867 4.5243 10.9702C3.78251 10.9702 3.09296 10.7613 2.48699 10.4479V10.4792C2.48699 12.6523 4.03326 14.4702 6.08102 14.8777C5.42357 15.0576 4.73336 15.0827 4.0646 14.9508C4.34837 15.8415 4.90411 16.6208 5.65372 17.1793C6.40333 17.7377 7.3091 18.0472 8.2437 18.0643C6.65944 19.3185 4.69564 19.9964 2.67505 19.9867C2.31982 19.9867 1.9646 19.9658 1.60938 19.924C3.59445 21.1986 5.95564 21.9404 8.484 21.9404C16.7168 21.9404 21.2407 15.1076 21.2407 9.18368C21.2407 8.98517 21.2407 8.79711 21.2303 8.5986C22.1079 7.97174 22.8601 7.17771 23.4661 6.26875Z" fill="#991A1A"></path>
</svg></defs><use href="#svg-1515135370_1101"></use></svg>